<svg id="visual" viewBox="0 0 960 540" width="960" height="540" xmlns="http://www.w3.org/2000/svg" xmlns:xlink="http://www.w3.org/1999/xlink" version="1.1"><rect x="0" y="0" width="960" height="540" fill="#2c2a5c"></rect><defs><linearGradient id="grad1_0" x1="43.8%" y1="0%" x2="100%" y2="100%"><stop offset="14.444444444444446%" stop-color="#2c2a5c" stop-opacity="1"></stop><stop offset="85.55555555555554%" stop-color="#2c2a5c" stop-opacity="1"></stop></linearGradient></defs><defs><linearGradient id="grad2_0" x1="0%" y1="0%" x2="56.3%" y2="100%"><stop offset="14.444444444444446%" stop-color="#2c2a5c" stop-opacity="1"></stop><stop offset="85.55555555555554%" stop-color="#2c2a5c" stop-opacity="1"></stop></linearGradient></defs><g transform="translate(960, 0)"><path d="M0 351C-29.9 327 -59.9 302.9 -96.1 295.8C-132.3 288.6 -174.8 298.4 -206.3 284C-237.8 269.5 -258.3 230.9 -268.6 195.1C-278.9 159.4 -279 126.6 -291 94.6C-303.1 62.5 -327 31.3 -351 0L0 0Z" fill="#373669"></path></g><g transform="translate(0, 540)"><path d="M0 -351C34.2 -336 68.4 -321 99.5 -306.2C130.6 -291.4 158.7 -276.8 189.9 -261.3C221 -245.8 255.1 -229.4 280.7 -204C306.4 -178.5 323.5 -144 333.8 -108.5C344.1 -73 347.6 -36.5 351 0L0 0Z" fill="#373669"></path></g></svg>