<svg id="visual" viewBox="0 0 600 900" width="600" height="900" xmlns="http://www.w3.org/2000/svg" xmlns:xlink="http://www.w3.org/1999/xlink" version="1.1"><rect x="0" y="0" width="600" height="900" fill="#2c2a5c"></rect><defs><linearGradient id="grad1_0" x1="0%" y1="0%" x2="100%" y2="100%"><stop offset="30%" stop-color="#2c2a5c" stop-opacity="1"></stop><stop offset="70%" stop-color="#2c2a5c" stop-opacity="1"></stop></linearGradient></defs><defs><linearGradient id="grad2_0" x1="0%" y1="0%" x2="100%" y2="100%"><stop offset="30%" stop-color="#2c2a5c" stop-opacity="1"></stop><stop offset="70%" stop-color="#2c2a5c" stop-opacity="1"></stop></linearGradient></defs><g transform="translate(600, 0)"><path d="M0 351.5C-32.5 333.6 -65 315.7 -98.3 302.4C-131.5 289.2 -165.5 280.6 -189.3 260.5C-213.1 240.4 -226.7 208.9 -252.4 183.4C-278.1 157.8 -315.8 138.2 -334.3 108.6C-352.9 79.1 -352.2 39.5 -351.5 0L0 0Z" fill="#373669"></path></g><g transform="translate(0, 900)"><path d="M0 -351.5C37.1 -348.6 74.2 -345.6 108.6 -334.3C143.1 -323.1 175 -303.5 203.4 -279.9C231.8 -256.4 256.7 -228.8 272.6 -198.1C288.6 -167.3 295.5 -133.4 307.2 -99.8C318.8 -66.3 335.2 -33.1 351.5 0L0 0Z" fill="#373669"></path></g></svg>