<svg id="visual" viewBox="0 0 960 540" width="960" height="540" xmlns="http://www.w3.org/2000/svg" xmlns:xlink="http://www.w3.org/1999/xlink" version="1.1"><path d="M0 93L32 91.2C64 89.3 128 85.7 192 81.2C256 76.7 320 71.3 384 66.8C448 62.3 512 58.7 576 61.3C640 64 704 73 768 74.8C832 76.7 896 71.3 928 68.7L960 66L960 0L928 0C896 0 832 0 768 0C704 0 640 0 576 0C512 0 448 0 384 0C320 0 256 0 192 0C128 0 64 0 32 0L0 0Z" fill="#434280"></path><path d="M0 239L32 232.7C64 226.3 128 213.7 192 214.5C256 215.3 320 229.7 384 238.7C448 247.7 512 251.3 576 244.2C640 237 704 219 768 220.8C832 222.7 896 244.3 928 255.2L960 266L960 64L928 66.7C896 69.3 832 74.7 768 72.8C704 71 640 62 576 59.3C512 56.7 448 60.3 384 64.8C320 69.3 256 74.7 192 79.2C128 83.7 64 87.3 32 89.2L0 91Z" fill="#3b3a72"></path><path d="M0 325L32 325.8C64 326.7 128 328.3 192 332C256 335.7 320 341.3 384 346.8C448 352.3 512 357.7 576 345.8C640 334 704 305 768 301.3C832 297.7 896 319.3 928 330.2L960 341L960 264L928 253.2C896 242.3 832 220.7 768 218.8C704 217 640 235 576 242.2C512 249.3 448 245.7 384 236.7C320 227.7 256 213.3 192 212.5C128 211.7 64 224.3 32 230.7L0 237Z" fill="#343264"></path><path d="M0 384L32 382.3C64 380.7 128 377.3 192 380.2C256 383 320 392 384 398.2C448 404.3 512 407.7 576 394.2C640 380.7 704 350.3 768 352.2C832 354 896 388 928 405L960 422L960 339L928 328.2C896 317.3 832 295.7 768 299.3C704 303 640 332 576 343.8C512 355.7 448 350.3 384 344.8C320 339.3 256 333.7 192 330C128 326.3 64 324.7 32 323.8L0 323Z" fill="#2c2a57"></path><path d="M0 541L32 541C64 541 128 541 192 541C256 541 320 541 384 541C448 541 512 541 576 541C640 541 704 541 768 541C832 541 896 541 928 541L960 541L960 420L928 403C896 386 832 352 768 350.2C704 348.3 640 378.7 576 392.2C512 405.7 448 402.3 384 396.2C320 390 256 381 192 378.2C128 375.3 64 378.7 32 380.3L0 382Z" fill="#25234a"></path></svg>