<svg id="visual" viewBox="0 0 675 900" width="675" height="900" xmlns="http://www.w3.org/2000/svg" xmlns:xlink="http://www.w3.org/1999/xlink" version="1.1"><path d="M0 154L22.5 151C45 148 90 142 135 134.5C180 127 225 118 270 110.5C315 103 360 97 405 101.5C450 106 495 121 540 124C585 127 630 118 652.5 113.5L675 109L675 0L652.5 0C630 0 585 0 540 0C495 0 450 0 405 0C360 0 315 0 270 0C225 0 180 0 135 0C90 0 45 0 22.5 0L0 0Z" fill="#434280"></path><path d="M0 397L22.5 386.5C45 376 90 355 135 356.5C180 358 225 382 270 397C315 412 360 418 405 406C450 394 495 364 540 367C585 370 630 406 652.5 424L675 442L675 107L652.5 111.5C630 116 585 125 540 122C495 119 450 104 405 99.5C360 95 315 101 270 108.5C225 116 180 125 135 132.5C90 140 45 146 22.5 149L0 152Z" fill="#3d3c77"></path><path d="M0 541L22.5 542.5C45 544 90 547 135 553C180 559 225 568 270 577C315 586 360 595 405 575.5C450 556 495 508 540 502C585 496 630 532 652.5 550L675 568L675 440L652.5 422C630 404 585 368 540 365C495 362 450 392 405 404C360 416 315 410 270 395C225 380 180 356 135 354.5C90 353 45 374 22.5 384.5L0 395Z" fill="#37366e"></path><path d="M0 640L22.5 637C45 634 90 628 135 632.5C180 637 225 652 270 662.5C315 673 360 679 405 656.5C450 634 495 583 540 586C585 589 630 646 652.5 674.5L675 703L675 566L652.5 548C630 530 585 494 540 500C495 506 450 554 405 573.5C360 593 315 584 270 575C225 566 180 557 135 551C90 545 45 542 22.5 540.5L0 539Z" fill="#313065"></path><path d="M0 901L22.5 901C45 901 90 901 135 901C180 901 225 901 270 901C315 901 360 901 405 901C450 901 495 901 540 901C585 901 630 901 652.5 901L675 901L675 701L652.5 672.5C630 644 585 587 540 584C495 581 450 632 405 654.5C360 677 315 671 270 660.5C225 650 180 635 135 630.5C90 626 45 632 22.5 635L0 638Z" fill="#2c2a5c"></path></svg>